<svg width="64" height="64" viewBox="0 0 64 64" fill="none" xmlns="http://www.w3.org/2000/svg">
<path d="M37.4934 26.5068L32.0001 24.0002L37.4934 21.4935L40.0001 16.0002L42.5067 21.4935L48.0001 24.0002L42.5067 26.5068L40.0001 32.0002L37.4934 26.5068ZM10.6667 37.3335L13.1734 31.8402L18.6667 29.3335L13.1734 26.8268L10.6667 21.3335L8.16008 26.8268L2.66675 29.3335L8.16008 31.8402L10.6667 37.3335ZM22.6667 24.0002L25.5734 17.5735L32.0001 14.6668L25.5734 11.7602L22.6667 5.3335L19.7601 11.7602L13.3334 14.6668L19.7601 17.5735L22.6667 24.0002ZM12.0001 54.6668L28.0001 38.6402L38.6667 49.3068L61.3334 23.8135L57.5734 20.0535L38.6667 41.3068L28.0001 30.6402L8.00008 50.6668L12.0001 54.6668Z" fill="#795FE6"/>
</svg>
