<svg width="64" height="64" viewBox="0 0 64 64" fill="none" xmlns="http://www.w3.org/2000/svg">
<path d="M32.0001 17.3333C36.9034 17.317 41.7117 18.6848 45.8724 21.2793C50.0331 23.8738 53.3771 27.5898 55.5201 32C51.1201 40.9867 42.1334 46.6667 32.0001 46.6667C21.8667 46.6667 12.8801 40.9867 8.48008 32C10.6231 27.5898 13.9671 23.8738 18.1278 21.2793C22.2884 18.6848 27.0968 17.317 32.0001 17.3333ZM32.0001 12C18.6667 12 7.28008 20.2933 2.66675 32C7.28008 43.7067 18.6667 52 32.0001 52C45.3334 52 56.7201 43.7067 61.3334 32C56.7201 20.2933 45.3334 12 32.0001 12ZM32.0001 25.3333C33.7682 25.3333 35.4639 26.0357 36.7141 27.286C37.9644 28.5362 38.6667 30.2319 38.6667 32C38.6667 33.7681 37.9644 35.4638 36.7141 36.714C35.4639 37.9643 33.7682 38.6667 32.0001 38.6667C30.232 38.6667 28.5363 37.9643 27.286 36.714C26.0358 35.4638 25.3334 33.7681 25.3334 32C25.3334 30.2319 26.0358 28.5362 27.286 27.286C28.5363 26.0357 30.232 25.3333 32.0001 25.3333ZM32.0001 20C25.3867 20 20.0001 25.3867 20.0001 32C20.0001 38.6133 25.3867 44 32.0001 44C38.6134 44 44.0001 38.6133 44.0001 32C44.0001 25.3867 38.6134 20 32.0001 20Z" fill="#795FE6"/>
</svg>
