<svg width="64" height="64" viewBox="0 0 64 64" fill="none" xmlns="http://www.w3.org/2000/svg">
<path d="M37.3334 5.3335H16.0001C13.0667 5.3335 10.6667 7.7335 10.6667 10.6668V53.3335C10.6667 56.2668 13.0667 58.6668 16.0001 58.6668H48.0001C50.9334 58.6668 53.3334 56.2668 53.3334 53.3335V21.3335L37.3334 5.3335ZM48.0001 53.3335H16.0001V10.6668H37.3334V21.3335H48.0001V53.3335ZM32.0001 45.3335C29.0667 45.3335 26.6667 42.9335 26.6667 40.0002V25.3335C26.6667 24.5868 27.2534 24.0002 28.0001 24.0002C28.7467 24.0002 29.3334 24.5868 29.3334 25.3335V40.0002H34.6667V25.3335C34.6667 23.5654 33.9644 21.8697 32.7141 20.6195C31.4639 19.3692 29.7682 18.6668 28.0001 18.6668C26.232 18.6668 24.5363 19.3692 23.286 20.6195C22.0358 21.8697 21.3334 23.5654 21.3334 25.3335V40.0002C21.3334 45.8935 26.1067 50.6668 32.0001 50.6668C37.8934 50.6668 42.6667 45.8935 42.6667 40.0002V29.3335H37.3334V40.0002C37.3334 42.9335 34.9334 45.3335 32.0001 45.3335Z" fill="#795FE6"/>
</svg>
