<svg width="64" height="64" viewBox="0 0 64 64" fill="none" xmlns="http://www.w3.org/2000/svg">
<path d="M8 31.9998C8 37.8932 10.4267 43.1998 14.2933 47.0398L8 53.3332H24V37.3332L18.0267 43.3065C15.026 40.3083 13.3379 36.2417 13.3333 31.9998C13.3332 28.6933 14.3592 25.4683 16.2698 22.7696C18.1803 20.0709 20.8813 18.0317 24 16.9332V11.3598C14.8 13.7332 8 22.0532 8 31.9998ZM29.3333 45.3332H34.6667V39.9998H29.3333V45.3332ZM56 10.6665H40V26.6665L45.9733 20.6932C48.974 23.6914 50.6621 27.758 50.6667 31.9998C50.6668 35.3064 49.6408 38.5314 47.7302 41.2301C45.8197 43.9288 43.1187 45.968 40 47.0665V52.6398C49.2 50.2665 56 41.9465 56 31.9998C56 26.1065 53.5733 20.7998 49.7067 16.9598L56 10.6665ZM29.3333 34.6665H34.6667V18.6665H29.3333V34.6665Z" fill="#795FE6"/>
</svg>
